<svg xmlns="http://www.w3.org/2000/svg" version="1.1" xmlns:xlink="http://www.w3.org/1999/xlink" xmlns:svgjs="http://svgjs.com/svgjs" width="100%" height="100%" viewBox="0 0 1000 600"><rect width="1000" height="600" x="0" y="0" fill="#90a4ae"/><g><circle r="166.66666666666666" cx="336.92092386881507" cy="359.1431563234037" fill="#ffffff" transform="matrix(0.7341958341914785,0,0,0.7341958341914786,0,36.318567700026136)"/><path d="M233.78700952742884 346.27915705450243L233.78700952742884 346.27915705450243Q228.45962355178676 346.27915705450243 225.00060990883435 344.2340467984502Q221.54159626588194 342.1889365423981 219.572230834128 339.3611297685975Q217.62811367714013 336.5080747200309 216.74442406032747 333.3267920995054Q215.8607344435148 330.12026120421365 215.8607344435148 327.82266820050074L215.8607344435148 327.82266820050074Q215.6587482453862 321.4348546846835 219.31974808646723 313.88562052962675Q222.95549965278218 306.33638637457 231.2874303255873 299.6708418363259Q239.6446092731585 293.0305455728479 253.0514431739449 288.58684921401846Q266.4330287999652 284.1431528551891 285.7984555455456 284.1431528551891L285.7984555455456 284.1431528551891Q290.7723656744626 284.1431528551891 298.5740825771801 285.5570562420894Q306.37579947989764 286.9709596289896 313.84928881065616 290.7077042943689Q321.2975298666486 294.4444489597481 326.62491584229065 301.08474522322615Q331.9523018179327 307.7502897614703 331.77556389457015 318.0515858660293L331.77556389457015 318.0515858660293Q331.77556389457015 324.96961315193414 329.47797089085725 330.574730150003Q327.15512961237823 336.1545988733059 323.3426401227008 340.4215573087728Q319.53015063302325 344.68851574423957 314.2027646573812 347.44057769374183Q308.87537868173916 350.1926396432442 302.841041012647 351.42980510678194L302.841041012647 351.42980510678194Q308.69864075837665 351.9600188768695 314.90971635083133 354.1818670562842Q321.1207919432861 356.4037152356989 326.34718481986386 360.4686874730371Q331.5988259712076 364.55890798514145 334.9820947898619 370.4165077308711Q338.34011533374996 376.27410747660076 338.51685325711253 384.27781057744687L338.51685325711253 384.27781057744687Q338.69359118047504 395.4627962988186 333.2904603805348 404.95614761086324Q327.8620813058284 414.4494989229079 316.778088683521 420.13036074527497Q305.6688477864475 425.81122256764206 289.08073126513546 427.0483880311798Q272.4926147438235 428.28555349471753 250.12264330108007 422.95816751907546L250.12264330108007 422.95816751907546Q251.8900225347054 419.77688489854995 253.22818109730744 416.92382984998335Q254.54109138514337 414.09602307618275 255.45002927672212 410.99048527995546Q256.3337188935348 407.88494748372807 256.9396774879206 404.3249407417113Q257.5708843570725 400.76493399969456 258.1010981271601 396.3464859156313L258.1010981271601 396.3464859156313Q258.4545739738852 393.31669294370215 259.0857808430371 387.8125690446975Q259.69173943742294 382.308445145693 260.39869113087303 375.2136799364256Q261.13089109908924 368.1189147271582 261.8378427925394 359.76173577958707Q262.54479448598954 351.42980510678194 262.9740151570128 342.82014341155Q263.42848410280214 334.210481716318 263.50422892710037 325.6765648453843Q263.6052220261647 317.1678962492166 263.25174617943964 309.5176689950956L263.25174617943964 309.5176689950956Q262.89827033271456 303.66006924936596 262.72153240935205 299.8475797596884Q262.54479448598954 296.035090270011 262.19131863926447 293.5607593429355L262.19131863926447 293.5607593429355Q252.42023630479298 294.97466272983576 244.87100214973623 298.6104142961507Q237.32176799467948 302.24616586246566 232.17111994239997 307.32106909044694Q227.02047189012043 312.3707240436622 224.47039613874676 318.5060548118187Q221.89507211260698 324.6161373052091 222.4252858826946 331.00395082102636L222.4252858826946 331.00395082102636Q222.95549965278218 337.21502641348104 227.82841668263487 340.14382628634587Q232.70133371248755 343.0726261592107 239.1143955030709 342.1889365423981L239.1143955030709 342.1889365423981Q242.29567812359647 341.6587227723105 244.6185194020755 339.79035043962085Q246.9161124057884 337.9219781069312 248.33001579268867 335.4476471798557Q249.769167454355 332.97331625278025 250.1983881253783 329.9435232808512Q250.65285707116766 326.913730308922 250.12264330108007 324.08592353512154L250.12264330108007 324.08592353512154Q249.5671812562264 321.23286848655493 247.9765399459636 319.81896509965463Q246.3858986357008 318.40506171275433 244.44178147871295 317.950592766965Q242.472416046959 317.52137209594173 240.42730579090684 317.87484794266675Q238.3821955348547 318.2283237893919 236.96829214795443 319.1120134062045L236.96829214795443 319.1120134062045Q235.90786460777923 319.81896509965463 235.02417499096657 321.1571236622567Q234.1404853741539 322.49528222485867 233.78700952742884 324.08592353512154Q233.43353368070376 325.6765648453843 233.96374745079137 327.3681992547114Q234.49396122087896 329.0598336640385 236.43807837786682 330.12026120421365L236.43807837786682 330.12026120421365Q236.61481630122935 327.9994061238633 238.02871968812963 326.4845096378988Q239.46787134979596 324.96961315193414 241.58872643014635 325.6765648453843L241.58872643014635 325.6765648453843Q242.8258918936841 326.2067786154719 243.35610566377167 327.54493717807395Q243.88631943385928 328.8830957406759 243.5328435871342 330.39799222664055Q243.17936774040913 331.88764043783897 241.9422022768714 333.1500541761428Q240.70503681333366 334.38721963968055 238.3821955348547 334.5639575630431L238.3821955348547 334.5639575630431Q236.7915542245919 334.74069548640557 235.02417499096657 334.210481716318Q233.25679575734125 333.6802679462304 231.74189927137667 332.41785420792655Q230.2270027854121 331.18068874438893 229.24232006953514 329.1355784883367Q228.28288562842425 327.1157165070506 228.45962355178676 324.08592353512154L228.45962355178676 324.08592353512154Q228.6363614751493 321.4348546846835 230.05026486204957 319.28875132956705Q231.46416824894982 317.1678962492166 233.6102716040663 315.7539928623164Q235.7311266844167 314.31484120065005 238.3821955348547 313.60788950719996Q241.05851266005874 312.9009378137498 243.70958151049675 313.0776757371123L243.70958151049675 313.0776757371123Q255.45002927672212 313.60788950719996 255.62676720008466 327.29245443041316L255.62676720008466 327.29245443041316Q255.62676720008466 330.65047497430123 254.28860863748264 334.0337437929554Q252.9504500748806 337.3917643368436 250.12264330108007 340.14382628634587Q247.26958825251347 342.89588823584813 243.17936774040913 344.58752264517534Q239.1143955030709 346.27915705450243 233.78700952742884 346.27915705450243ZM277.61801452133693 292.47508352799423L277.61801452133693 292.47508352799423Q277.2645386746119 298.1559453503613 276.30510423350097 305.1749657353305Q275.320421517624 312.19398612029966 274.4367319008113 319.9957030230172Q273.5530422839987 327.82266820050074 272.9218354148468 336.07885404900765Q272.29062854569486 344.33503989751455 272.669352667186 352.4902326469571L272.669352667186 352.4902326469571Q280.47106956990353 353.5506601871323 288.19704164832285 350.5461154899692Q295.9230137267421 347.51632251804017 302.13408931919685 341.83546069567296Q308.3451649116515 336.1545988733059 312.15765440132907 328.6053647182491Q315.9701438910065 321.05613056319237 315.9701438910065 313.0776757371123L315.9701438910065 313.0776757371123Q315.9701438910065 306.8666001446576 312.05666130226473 302.24616586246566Q308.16842698828907 297.62573158027374 302.31082724255936 294.97466272983576Q296.4532274968297 292.29834560463166 289.7876829585856 291.59139391118157Q283.12213842034157 290.8844422177315 277.61801452133693 292.47508352799423ZM272.84609059054856 360.82216331976224L272.84609059054856 360.82216331976224Q273.0228285139111 366.32628721876677 272.84609059054856 373.09282485607514Q272.669352667186 379.8341142186175 272.21488372139663 386.9288794278849Q271.7604147756073 394.0236446371523 271.2302010055197 401.2194029454839Q270.6999872354321 408.41516125381565 270.1697734653445 414.8029747696329L270.1697734653445 414.8029747696329Q277.2645386746119 417.27730569670837 285.9751934689081 416.7470919266208Q294.6605999884383 416.2168781565332 302.2098341434951 412.5811265902182Q309.7590682985518 408.94537502390324 314.73297842746877 402.0273477379984Q319.7068885563858 395.08407217732747 319.3534127096607 384.631286424172L319.3534127096607 384.631286424172Q318.99993686293567 377.68801086350106 316.50035766109414 373.09282485607514Q314.02602673401867 368.4723905738832 310.0367993209786 365.5435907010185Q306.0223236331725 362.6147908281537 301.1494066033199 361.20088744125337Q296.2764895734672 359.76173577958707 291.1258415211877 359.40825993286194Q285.9751934689081 359.0547840861369 281.1780212633537 359.5092530319263Q276.3808490577992 359.9384737029495 272.84609059054856 360.82216331976224ZM332.12903974129523 412.68211968928256L332.12903974129523 412.68211968928256Q335.8657844066745 411.0662301042537 339.5015359729895 409.4755887939908Q343.13728753930445 407.88494748372807 347.0507701280462 405.4863613809508Q350.93900444202194 403.0877752781736 355.13021805319056 399.27528578849615Q359.2961833895931 395.4627962988186 364.0933555951476 389.2264724315978L364.0933555951476 389.2264724315978Q368.15832783248584 383.7223485325933 374.19266550157806 375.11268683736125Q380.2270031706702 366.50302514212933 386.4633270378911 356.93392900578647L386.4633270378911 356.93392900578647Q383.43353406596185 351.78328095350696 380.60572729216136 346.98610874795247Q377.7526722435947 342.1889365423981 375.177348217455 338.02297120599553Q372.6020241913152 333.85700586959297 370.3801760119005 330.574730150003Q368.15832783248584 327.29245443041316 366.5676865222231 325.1463510752967L366.5676865222231 325.1463510752967Q363.00767978020633 320.70265471646724 360.1798730064058 317.4203789968774Q357.3268179578392 314.13810327728754 354.22128016161184 312.0172481969371Q351.11574236538445 309.87114484182064 347.30325287570696 308.73497247734724Q343.49076338602947 307.57355183810773 337.98663948702495 307.22007599138266L337.98663948702495 307.22007599138266L338.1633774103874 302.24616586246566Q350.93900444202194 304.19028301945355 362.75519703254554 304.5690071409447Q374.5461413483031 304.9224829876697 388.05396834815383 301.89269001574064L388.05396834815383 301.89269001574064L389.114395888329 305.982910527845Q383.6102719893244 308.6339793782829 381.7418996566348 314.5925722230769Q379.87352732394515 320.5259167931048 383.9637478360495 328.70635781731346L383.9637478360495 328.70635781731346Q385.37765122294974 331.18068874438893 387.87723042479126 335.6243851032183Q390.35156135186674 340.06808146204764 393.7348301705209 346.10241913113987L393.7348301705209 346.10241913113987Q400.4761195330632 335.6243851032183 405.9802434320678 326.66124756126123Q411.48436733107246 317.6981100193043 413.9586982581479 312.72419989038724L413.9586982581479 312.72419989038724Q415.57458784317674 309.34093107173305 416.1048016132644 306.15964845120743L416.1048016132644 306.15964845120743Q416.4582774599894 303.4833313260034 415.57458784317674 300.90800729986364Q414.6908982263641 298.3326832737239 411.3076294077099 296.9187798868236L411.3076294077099 296.9187798868236L412.1913190245225 294.26771103638566Q416.8117533067145 294.6211868831107 422.3916220300173 295.050407554134Q427.99673902808615 295.5048764999234 433.576607751389 295.68161442328585Q439.1817247494579 295.8583523466484 444.15563487837494 295.5048764999234Q449.1295450072919 295.15140065319827 452.6643034745425 293.91423518966053L452.6643034745425 293.91423518966053L452.3108276278174 298.1559453503613Q448.5993312372043 299.0648832419401 445.3928003419127 299.8475797596884Q442.18626944662094 300.6555245522029 438.6515109793703 303.05411065498015Q435.09150423735355 305.45269675775734 430.4710699551616 310.42660688667434Q425.87588394773576 315.3752687408253 419.28608423378995 324.43939938184656L419.28608423378995 324.43939938184656Q414.1354361815104 331.53416459111395 409.010036403997 339.26013666953327Q403.8593883517175 346.98610874795247 398.88547822280043 354.9645635740326L398.88547822280043 354.9645635740326Q402.59697461341364 361.37762536461594 406.687195125518 368.1946595514564Q410.7774156376223 375.036942013063 415.04437407308916 381.95496929896785Q419.28608423378995 388.8729965848728 423.5530426692568 395.4627962988186Q427.8200011047236 402.0273477379984 431.7334836934655 407.7082095603655L431.7334836934655 407.7082095603655Q436.85888347097887 415.50992646308305 440.51988331205996 419.6001469751874Q444.15563487837494 423.6903674872917 446.98344165217543 425.81122256764206Q449.83649670074203 427.9320776479925 452.3108276278174 428.63902934144255Q454.810406829659 429.3712293096588 457.81495152682203 430.07818100310897L457.81495152682203 430.07818100310897L457.9916894501846 433.6129394703596Q452.6643034745425 432.90598777690946 445.03932449518754 432.1990360834593Q437.41434551583257 431.49208439000915 429.5116355140507 431.3910912909449Q421.6089255122689 431.3153464666467 414.5141603030015 431.8455602367343Q407.3941468189681 432.37577400682187 402.95045046013865 434.1431532404472L402.95045046013865 434.1431532404472L402.2434987666886 429.9014430797464Q406.687195125518 427.5786018012674 409.9694708451078 425.53349154521527Q413.2517465646978 423.51362956392916 414.5899051272998 420.66057451536255Q415.9280636899018 417.80751946679595 415.22111199645167 413.4648162070308Q414.5141603030015 409.1221129472658 411.13089148434733 402.0273477379984L411.13089148434733 402.0273477379984Q408.1010985124182 395.63953422218117 402.95045046013865 386.22192773443476Q397.82505068262526 376.80432124668835 392.14418886025817 366.50302514212933L392.14418886025817 366.50302514212933Q386.4633270378911 376.27410747660076 382.09537550335983 384.53029332510766Q377.7526722435947 392.78647917361457 375.27834131651935 398.2906030726191L375.27834131651935 398.2906030726191Q372.0718104212276 405.20863035852403 373.30897588476535 407.9606923080263Q374.5461413483031 410.71275425752856 378.45962393704485 411.9499197210663L378.45962393704485 411.9499197210663L377.3991963968697 415.86340230980807Q371.7183345745026 414.8029747696329 365.4062658829835 414.34850582384354Q359.11944546623056 413.9192851528203 353.1608526214366 413.9192851528203Q347.22750805140873 413.9192851528203 341.9001220757667 414.4494989229079Q336.57273610012464 414.97971269299546 332.6592535113829 415.86340230980807L332.6592535113829 415.86340230980807L332.12903974129523 412.68211968928256Z " fill="#90a4ae" transform="matrix(0.7341958341914785,0,0,0.7341958341914786,0,36.318567700026136)"/><path d="M599.1095568232138 334.44740489290064L599.1095568232138 334.44740489290064Q595.4894351811993 334.44740489290064 593.138929660081 333.05768994975756Q590.7884241389625 331.6679750066146 589.4501801196396 329.7463938506638Q588.1290930749235 327.80765572010625 587.5285989636889 325.64587691966153Q586.9281048524542 323.46694114461025 586.9281048524542 321.90565645540016L586.9281048524542 321.90565645540016Q586.7908490556006 317.56494187990415 589.2786103735726 312.4350064724997Q591.749214716938 307.3050710650953 597.4110163371502 302.77562976892557Q603.0899749319691 298.26334544736244 612.2003284481287 295.2437179165826Q621.2935249896817 292.2240903858028 634.4529245130234 292.2240903858028L634.4529245130234 292.2240903858028Q637.8328485105441 292.2240903858028 643.1343536640155 293.18488096377814Q648.435858817487 294.1456715417536 653.5143233010713 296.68490378354574Q658.5756308100489 299.2241360253379 662.1957524520633 303.73642034690096Q665.8158740940778 308.2658616430707 665.6957752718309 315.2659072826059L665.6957752718309 315.2659072826059Q665.6957752718309 319.9669183248427 664.1344905826209 323.7757666875309Q662.5560489188042 327.5674580756124 659.9653457531919 330.4669867841453Q657.3746425875796 333.3665154926782 653.7545209455651 335.23662572480896Q650.1343993035507 337.1067359569397 646.0338823725485 337.9474277126682L646.0338823725485 337.9474277126682Q650.0143004813037 338.30772417940886 654.2349162345529 339.8175379447988Q658.455531987802 341.32735171018874 662.0070257313896 344.0896246218681Q665.575676449584 346.869054508154 667.8747110468823 350.84947261690934Q670.1565886695739 354.82989072566454 670.2766874918208 360.26865167598964L670.2766874918208 360.26865167598964Q670.3967863140678 367.86919142675936 666.7251937482331 374.32021387887994Q663.0364442077919 380.77123633100064 655.5045323554489 384.63155561750887Q647.9554635284993 388.4918749040172 636.6833312118949 389.3325666597458Q625.4111988952907 390.17325841547427 610.2101193937511 386.55313677345976L610.2101193937511 386.55313677345976Q611.4111076162203 384.39135797301503 612.3204272703756 382.4526198424576Q613.2125899499242 380.5310386865067 613.8302410357655 378.42073080988223Q614.4307351470002 376.31042293325766 614.8425025375611 373.8912895137124Q615.2714269027288 371.4721560941672 615.6317233694695 368.469685537994L615.6317233694695 368.469685537994Q615.8719210139634 366.41084858518957 616.3008453791309 362.6706281209282Q616.7126127696918 358.9304076566667 617.1930080586795 354.10929779218304Q617.690560322274 349.28818792769925 618.1709556112617 343.6092293328803Q618.6513509002493 337.9474277126682 618.9430194685633 332.09689937178223Q619.251845011484 326.24637103089617 619.3033159353041 320.4473136138304Q619.3719438337309 314.6654131713712 619.131746189237 309.46684986554L619.131746189237 309.46684986554Q618.8915485447433 305.4864317567847 618.7714497224963 302.89572859117243Q618.6513509002493 300.3050254255602 618.4111532557555 298.62364191410325L618.4111532557555 298.62364191410325Q611.7714040829612 299.5844324920787 606.6414686755568 302.05503683544396Q601.5115332681523 304.52564117880934 598.0115104483848 307.9741930747567Q594.5114876286173 311.40558799609755 592.7786331933402 315.57473282552655Q591.0286217834564 319.72672068034876 591.3889182501971 324.0674352558449L591.3889182501971 324.0674352558449Q591.749214716938 328.2880510090939 595.0605108160318 330.27826006347163Q598.3718069151255 332.26846911784924 602.7296784652283 331.6679750066146L602.7296784652283 331.6679750066146Q604.8914572656729 331.3076785398738 606.4698989294898 330.0380624189777Q608.0311836186997 328.7684462980817 608.9919741966752 327.08706278662464Q609.9699217492573 325.4056792751677 610.2615903175713 323.3468423223633Q610.570415860492 321.28800536955885 610.2101193937511 319.36642421360807L610.2101193937511 319.36642421360807Q609.8326659524037 317.4276860830505 608.7517765521814 316.46689550507506Q607.670887151959 315.5061049270997 606.3498001072428 315.19727938417907Q605.0115560879199 314.9056108158651 603.6218411447769 315.1458084603589Q602.232126201634 315.38600610485275 601.2713356236585 315.9865002160874L601.2713356236585 315.9865002160874Q600.550742690177 316.46689550507506 599.9502485789424 317.37621515923036Q599.3497544677077 318.28553481338565 599.1095568232138 319.36642421360807Q598.8693591787201 320.4473136138304 599.2296556454608 321.5968309124795Q599.5899521122016 322.74634821112863 600.9110391569177 323.46694114461025L600.9110391569177 323.46694114461025Q601.0311379791647 322.02575527764714 601.99192855714 320.99633680124487Q602.9698761097222 319.9669183248427 604.4110619766852 320.4473136138304L604.4110619766852 320.4473136138304Q605.2517537324138 320.8076100805712 605.6120501991545 321.7169297347265Q605.9723466658953 322.6262493888818 605.7321490214015 323.65566786528393Q605.4919513769075 324.6679293670795 604.6512596211792 325.5257780974147Q603.8105678654506 326.36646985314314 602.232126201634 326.4865686753901L602.232126201634 326.4865686753901Q601.1512368014116 326.606667497637 599.9502485789424 326.24637103089617Q598.7492603564731 325.8860745641555 597.7198418800708 325.0282258338202Q596.6904234036685 324.18753407809174 596.0213013940072 322.7978191349488Q595.3693363589524 321.4252611664125 595.4894351811993 319.36642421360807L595.4894351811993 319.36642421360807Q595.6095340034462 317.56494187990415 596.5703245814217 316.10659903833437Q597.5311151593971 314.6654131713712 598.9894580009669 313.7046225933958Q600.43064386793 312.7266750408137 602.232126201634 312.246279751826Q604.0507655099445 311.7658844628383 605.8522478436485 311.8859832850852L605.8522478436485 311.8859832850852Q613.8302410357655 312.246279751826 613.9503398580125 321.54535998865936L613.9503398580125 321.54535998865936Q613.9503398580125 323.82723761135094 613.0410202038572 326.1262722086493Q612.1317005497019 328.4081498313409 610.2101193937511 330.27826006347163Q608.2713812631937 332.14837029560226 605.4919513769075 333.2978875942514Q602.7296784652283 334.44740489290064 599.1095568232138 334.44740489290064ZM628.8940647404515 297.88589200601496L628.8940647404515 297.88589200601496Q628.6538670959576 301.7462112925233 628.0019020609029 306.51585023318694Q627.3327800512415 311.2854891738506 626.7322859400068 316.58699432732203Q626.1317918287722 321.90565645540016 625.7028674636045 327.5159871517923Q625.273943098437 333.1263178481844 625.5312977175375 338.66802064614967L625.5312977175375 338.66802064614967Q630.832802871009 339.3886135796313 636.0828371006603 337.34693360143353Q641.3328713303117 335.2880966486291 645.5534870835608 331.42777736212076Q649.7741028368099 327.5674580756124 652.3648060024221 322.437522668208Q654.9555091680344 317.30758726080353 654.9555091680344 311.8859832850852L654.9555091680344 311.8859832850852Q654.9555091680344 307.66536753183607 652.2961781039953 304.52564117880934Q649.6540040145629 301.38591482578255 645.6735859058076 299.5844324920787Q641.6931677970524 297.7657931837681 637.1637265008826 297.2853978947804Q632.6342852047128 296.80500260579265 628.8940647404515 297.88589200601496ZM625.6513965397844 344.32982226636193L625.6513965397844 344.32982226636193Q625.7714953620314 348.0700427306233 625.6513965397844 352.66811192521993Q625.5312977175375 357.2490241452098 625.2224721746169 362.07013400969356Q624.9136466316962 366.89124387417723 624.5533501649554 371.78098163708785Q624.1930536982147 376.67071939999835 623.8327572314738 381.01143397549447L623.8327572314738 381.01143397549447Q628.6538670959576 382.6928174869514 634.5730233352704 382.3325210202106Q640.4750225999765 381.9722245534698 645.6049580073809 379.50162021010453Q650.7348934147853 377.03101586673915 654.1148174123059 372.33000482450234Q657.4947414098265 367.61183680765885 657.2545437653328 360.5088493204835L657.2545437653328 360.5088493204835Q657.0143461208388 355.79068130364 655.3158056347752 352.66811192521993Q653.6344221233182 349.5283855721931 650.923620135459 347.5381765178155Q648.1956611729931 345.5479674634379 644.8843650738993 344.58717688546244Q641.5730689748054 343.6092293328803 638.0730461550379 343.3690316883865Q634.5730233352704 343.12883404389265 631.3131981599967 343.4376595868133Q628.053372984723 343.7293281551273 625.6513965397844 344.32982226636193ZM706.220549292865 381.85212573122294L706.220549292865 381.85212573122294Q702.8577822699511 381.37173044223516 699.9582535614182 381.2516316199883Q697.0587248528853 381.13153279774133 694.759690255587 381.01143397549447L694.759690255587 381.01143397549447L689.8184815688563 381.01143397549447Q687.1763074794239 381.13153279774133 684.6370752376318 381.2516316199883L684.6370752376318 381.2516316199883Q682.4581394625804 381.37173044223516 680.107633941462 381.56045716290896Q677.7571284203436 381.73202690897597 675.9556460866397 381.9722245534698L675.9556460866397 381.9722245534698L675.2178961785514 380.41093986425983Q677.9973260648375 379.4501492862844 679.8159653731481 377.94033552089445Q681.617447706852 376.4305217555045 682.5782382848274 374.85208009168787L682.5782382848274 374.85208009168787Q683.7963834819034 373.05059775798395 684.1566799486441 371.1118596274264L684.1566799486441 371.1118596274264Q684.9973717043725 367.0113426964242 685.5463948917871 361.16081435553826Q686.078261104595 355.3102860146523 686.2669878252686 348.49896709579093Q686.4385575713357 341.68764817692954 686.3184587490888 334.49887581672067Q686.1983599268418 327.3272604311186 685.838063460101 320.56741243607735Q685.4777669933603 313.8247214156427 684.8086449836989 308.0942918970037Q684.1566799486441 302.3638623783647 683.3159881929156 298.50354309185633L683.3159881929156 298.50354309185633Q682.5782382848274 296.0844096723111 681.2571512401112 293.90547389725975L681.2571512401112 293.90547389725975Q680.1762618398889 292.10399156355584 678.3061516077581 290.474078975919Q676.4360413756274 288.84416638828213 673.5365126670945 288.36377109929447L673.5365126670945 288.36377109929447L673.4164138448475 286.5451317909839Q675.7154484421459 286.8024864100844 677.7571284203436 286.85395733390453Q679.8159653731481 286.92258523233136 681.3772500623581 286.92258523233136L681.3772500623581 286.92258523233136L684.6370752376318 286.92258523233136Q686.7988540380765 286.8024864100844 688.8576909908809 286.5451317909839L688.8576909908809 286.5451317909839Q690.5390745023378 286.30493414649 692.4778126328954 286.06473650199615Q694.3993937888463 285.82453885750226 695.7376378081691 285.3441435685146L695.7376378081691 285.3441435685146Q695.1371436969345 301.7462112925233 694.8283181540138 312.6752041169936Q694.5194926110931 323.5870399668571 694.2792949665993 330.2267891396515L694.2792949665993 330.2267891396515Q694.0390973221055 337.9474277126682 693.9189984998585 342.40824111041115L693.9189984998585 342.40824111041115Q693.7988996776116 346.869054508154 693.9189984998585 352.0504608393786Q694.0390973221055 357.2490241452098 694.468021687273 362.0186630858734Q694.8969460524406 366.7711450519304 695.6175389859221 370.51136551619174Q696.3381319194037 374.2515859804532 697.419021319626 375.8300276442699L697.419021319626 375.8300276442699Q698.0195154308607 376.9109170444923 699.3577594501836 377.75160880022077L699.3577594501836 377.75160880022077Q700.3185500281589 378.47220173370226 701.999933539616 379.0726958449369Q703.6984740256796 379.6903469307782 706.1004504706182 379.93054457527205L706.1004504706182 379.93054457527205L706.220549292865 381.85212573122294ZM732.8824878316826 317.805139524398L732.8824878316826 317.805139524398Q737.9609523152669 317.685040702151 742.9021610019976 319.84681950259574Q747.8433696887282 322.02575527764714 751.8237877974835 326.36646985314314Q755.8042059062387 330.70718442863915 758.2748102496041 336.9180092362659Q760.7625715675762 343.12883404389265 760.7625715675762 351.08967026140317L760.7625715675762 351.08967026140317Q760.7625715675762 359.0505064789137 758.7723625131985 365.14123246429347Q756.7821534588209 371.23195844967336 753.4537003851203 375.4697311775292Q750.1424042860266 379.6903469307782 745.8531606343506 381.92075362964977Q741.5810739572814 384.1511603285212 736.8629059404379 384.511456795262L736.8629059404379 384.511456795262Q731.5614007869665 384.8717532620028 726.5000932779889 382.76144538537824Q721.4216287944046 380.65113750875366 717.3897397618291 376.3618938570777Q713.3406937546471 372.0898071800085 710.8186184874617 365.7588835501349Q708.2793862456696 359.4108029456545 708.1592874234226 351.20976908365014L708.1592874234226 351.20976908365014Q707.9190897789288 342.76853757715185 710.2695953000472 336.5577127695251Q712.6201008211656 330.34688796189835 716.2402224631801 326.24637103089617Q719.8603441051946 322.145854099894 724.3211575029375 320.08701714708957Q728.7819709006804 318.0453371688918 732.8824878316826 317.805139524398ZM737.9609523152669 376.5506205777515L737.9609523152669 376.5506205777515Q740.4830275824525 376.31042293325766 743.3825562909853 374.3716848027001Q746.2820849995182 372.4501036467493 748.4438637999629 368.6412552840611Q750.6227995750143 364.8495638959796 751.6522180514164 359.2392331995875Q752.664479553212 353.6289025031954 751.4634913307427 346.02836275242555L751.4634913307427 346.02836275242555Q750.2625031082734 338.42782300165584 747.8433696887282 333.726811959419Q745.4413932437898 329.00864394257553 742.5933354590769 326.4179407769633Q739.7624346489708 323.82723761135094 736.8629059404379 323.0380167794426Q733.9805342065117 322.26595292214097 731.8015984314603 322.3860517443878L731.8015984314603 322.3860517443878Q728.3015756116927 322.6262493888818 725.8995991667542 324.73655726550635Q723.480465747209 326.8468651421308 721.8505531595722 330.15816124122466Q720.2206405719353 333.4866143149252 719.431419740027 337.70723006817434Q718.6593558827253 341.9278458214234 718.5392570604783 346.50875804141333L718.5392570604783 346.50875804141333Q718.2990594159844 352.3078154584791 719.3799488162068 358.08971590093824Q720.4608382164291 363.88877331800416 723.1201692804682 368.469685537994L723.1201692804682 368.469685537994Q725.6422445476537 372.930498935737 729.502563834162 374.9721789139347Q733.3628831206703 377.03101586673915 737.9609523152669 376.5506205777515ZM816.1281286234091 419.4945280183308L816.1281286234091 419.4945280183308Q814.1893904928515 422.7543531936045 811.5472164034192 425.5852540037107Q808.8878853393801 428.4161548138168 805.6280601641063 430.4063638681944Q802.3682349888327 432.396572922572 798.7481133468182 433.3745204751541Q795.1279917048037 434.33531105312954 791.2676724182953 434.0951134086357L791.2676724182953 434.0951134086357Q786.9269578427993 433.7348169418949 783.6842896421323 431.79607881133745Q780.4244644668586 429.87449765538656 778.2455286918073 427.0264398706738Q776.0837498913626 424.1955390605676 775.1744302372073 421.00434178372075Q774.265110583052 417.81314450687387 774.6254070497928 415.03371462058783L774.6254070497928 415.03371462058783Q774.9857035165335 412.13418591205493 776.4955172819234 409.354756025769Q778.0053310473133 406.59248311408965 780.4244644668586 404.41354733903825Q782.8264409117971 402.23461156398696 786.2063649093177 400.9135245192707Q789.5862889068384 399.5924374745546 793.8069046600875 399.71253629680143L793.8069046600875 399.71253629680143Q795.745642790645 399.8326351190484 797.6672239465959 400.6733268747769Q799.6059620771533 401.51401863050535 801.1157758425433 402.97236147207514Q802.6084326333265 404.41354733903825 803.3976534652348 406.40375639341596Q804.1868742971433 408.39396544779356 804.0667754748963 410.57290122284496L804.0667754748963 410.57290122284496Q803.8265778304025 412.73468002328957 802.7971593540003 414.91361579834097Q801.767740877598 417.0753945987856 800.1378282899611 418.82540600866935Q798.5079157023243 420.57541741855323 796.3461369018796 421.4847370727085Q794.1672011268282 422.3940567268638 791.7652246818898 422.033760260123L791.7652246818898 422.033760260123Q789.1058936178507 421.6734637933822 787.7848065731345 419.3058012976571Q786.4465625538116 416.9552957765387 786.6352892744853 414.31312168710633Q786.8068590205523 411.65379062306727 788.5568704304362 409.42338392419583Q790.3068818403199 407.1929772253243 793.8069046600875 406.95277958083045L793.8069046600875 406.95277958083045Q796.2260380796326 406.8326807585835 797.3755553782819 408.7027909907142Q798.5079157023243 410.57290122284496 797.5471251243489 412.13418591205493L797.5471251243489 412.13418591205493Q796.4662357241266 413.8155694235119 794.527497593569 413.64399967744487Q792.6059164376182 413.4552729567712 791.7652246818898 411.0532965118326L791.7652246818898 411.0532965118326Q790.7872771293077 411.77388944531424 790.2554109164998 413.1636043884572Q789.7063877290853 414.55331933160016 789.8264865513322 415.9430342747431Q789.9465853735792 417.3155922432795 790.7872771293077 418.3450107196817Q791.6451258596428 419.37442919608395 793.4466081933467 419.37442919608395L793.4466081933467 419.37442919608395Q795.6255439683981 419.37442919608395 797.1182007591813 418.46510954192865Q798.6280145245712 417.55578988777336 799.6059620771533 416.1832319192371Q800.5667526551288 414.793516976094 800.9785200456896 413.28370321070406Q801.4074444108572 411.77388944531424 801.4074444108572 410.57290122284496L801.4074444108572 410.57290122284496Q801.4074444108572 409.354756025769 800.9270491218695 407.96504108262593Q800.4466538328818 406.59248311408965 799.3657644326595 405.4429658154405Q798.2677180578305 404.2934485167914 796.4662357241266 403.6243265071299Q794.647596415816 402.97236147207514 792.0054223263836 403.0924602943221L792.0054223263836 403.0924602943221Q789.5862889068384 403.2125591165691 787.23578338572 404.1733496945444Q784.8852778646016 405.13414027251986 782.946539734044 406.8326807585835Q781.0249585780932 408.51406427004054 779.8239703556239 410.93319768958565Q778.605825158548 413.3351741345242 778.605825158548 416.2347028430571L778.605825158548 416.2347028430571Q778.605825158548 419.254330373837 779.8754412794441 421.6734637933822Q781.1450574003402 424.07544023832077 783.3068362007848 425.70535282595756Q785.4857719758362 427.33526541359447 788.2652018621222 428.24458506774977Q791.0274747738015 429.1367477472983 794.0471023045814 429.0166489250514L794.0471023045814 429.0166489250514Q796.9466310131143 428.89655010280444 800.5667526551288 426.90634104842684Q804.1868742971433 424.91613199404924 807.0864030056762 420.8842429614739Q809.9687747396024 416.83519695429175 811.4785885049923 410.50427332441814Q812.9884022703822 404.1733496945444 811.667315225666 395.25172289905856L811.667315225666 395.25172289905856Q811.0668211144314 391.0311071458094 810.7579955715107 387.1707878593011Q810.4491700285901 383.31046857279273 810.4491700285901 379.6903469307782L810.4491700285901 379.6903469307782Q808.8878853393801 381.9722245534698 806.7775774627555 384.4428288968352Q804.6672695861309 386.93059021480724 802.0765664205187 388.92079926918484Q799.4858632549065 390.91100832356244 796.3461369018796 392.16346746985187Q793.2064105488529 393.43308359074797 789.5862889068384 393.192885946254L789.5862889068384 393.192885946254Q785.2455743313424 392.9526883017602 781.0764295019134 391.1512059680563Q776.924441647091 389.3325666597458 773.7160873956375 385.18057880492347Q770.5248901187906 381.01143397549447 768.7748787089067 374.2515859804532Q767.0248672990231 367.4917379854119 767.6253614102576 357.36912296745675L767.6253614102576 357.36912296745675Q768.1057566992454 347.2293509748948 771.2454830522721 340.84695642120107Q774.3852094052988 334.44740489290064 778.605825158548 330.947382073133Q782.8264409117971 327.44735925336545 787.4759810302138 326.2978419547163Q792.1255211486305 325.1483246560672 795.6255439683981 325.5257780974147L795.6255439683981 325.5257780974147Q800.8069502996226 326.1262722086493 805.8167868847801 329.7463938506638Q810.8266234699375 333.3665154926782 813.5888963816169 340.84695642120107L813.5888963816169 340.84695642120107Q814.5668439341989 336.24888722660444 815.4590066137475 333.24641667043136Q816.3683262679028 330.2267891396515 816.248227445656 328.52824865358787L816.248227445656 328.52824865358787Q820.1085467321643 329.62629502841685 824.6894589521542 329.7463938506638Q829.270371172144 329.8664926729107 834.1086380112346 329.5061962061699L834.1086380112346 329.5061962061699L833.9885391889875 331.78807382886146Q828.5497782386625 332.26846911784924 825.4786797840625 336.31751512503126Q822.4075813294626 340.3494041576067 820.7090408433988 349.1680891054524L820.7090408433988 349.1680891054524Q819.6281514431765 354.7097919034177 819.3879537986827 359.89119823464216Q819.1477561541889 365.08976154047343 819.2678549764357 369.97949930338393Q819.3879537986827 374.85208009168787 819.7997211892437 379.50162021010453Q820.2286455544112 384.1511603285212 820.588942021152 388.73207254851116L820.588942021152 388.73207254851116Q820.8291396656458 391.5115024347971 820.9492384878927 395.25172289905856Q821.0693373101396 398.99194336331993 820.7090408433988 403.0924602943221Q820.3487443766581 407.1929772253243 819.319325900256 411.4650639023936Q818.2899074238537 415.75430755406944 816.1281286234091 419.4945280183308ZM811.1869199366784 358.08971590093824L811.1869199366784 358.08971590093824Q811.3070187589253 354.2293966144299 811.9075128701598 350.48917615016853L811.9075128701598 350.48917615016853Q811.0668211144314 344.0896246218681 808.0986645074718 339.9376367670458Q805.1476648751186 335.7684919376168 798.7481133468182 335.04789900413516L798.7481133468182 335.04789900413516Q795.0078928825567 334.5675037151475 791.404928215149 335.95721865829046Q787.7848065731345 337.34693360143353 784.8166499661747 340.5381308782804Q781.8656503338217 343.7293281551273 779.8239703556239 348.73916474028476Q777.7651334028195 353.74900132544224 777.2847381138318 360.62894814273045L777.2847381138318 360.62894814273045Q776.6842440025972 367.4917379854119 777.8166043266397 372.86187103731015Q778.9661216252888 378.23200408920843 781.3166271464072 381.8006548074028Q783.6842896421323 385.3521485509905 786.8068590205523 386.9820611386273Q789.9465853735792 388.6119737262642 793.3265093710997 388.2516772595234L793.3265093710997 388.2516772595234Q796.3461369018796 387.7712819705357 799.2456656104125 385.83254383997814Q802.1280373443387 383.91096268402737 804.4785428654571 381.20016069616815Q806.8462053611823 378.47220173370226 808.4589609742125 375.2810044568554Q810.0888735618493 372.0898071800085 810.7065246476907 368.9500808269818L810.7065246476907 368.9500808269818Q810.8266234699375 366.2907497629427 810.9467222921844 363.70004659733036Q811.0668211144314 361.1093434317181 811.1869199366784 358.08971590093824ZM822.2874825072156 379.57024810853136L822.2874825072156 379.57024810853136Q824.8095577744011 378.47220173370226 827.2801621177664 377.39131233347996Q829.7507664611318 376.31042293325766 832.4100975251708 374.68051034562075Q835.0694285892099 373.05059775798395 837.900329399316 370.4598945923717Q840.7312302094222 367.86919142675936 843.9910553846958 363.63141869890353L843.9910553846958 363.63141869890353Q846.7704852709819 359.89119823464216 850.8710022019841 354.0406698937562Q854.9715191329863 348.1901415528703 859.1921348862353 341.68764817692954L859.1921348862353 341.68764817692954Q857.1504549080375 338.187625357162 855.21171677748 334.9278001818883Q853.2901356215292 331.6679750066146 851.5401242116454 328.8370741965085Q849.7901128017617 326.00617338640234 848.2802990363717 323.7757666875309Q846.7704852709819 321.54535998865936 845.6895958707596 320.08701714708957L845.6895958707596 320.08701714708957Q843.2704624512143 317.0673896163097 841.3317243206567 314.83698291743826Q839.4101431647059 312.6065762185668 837.2998352880813 311.16539035160366Q835.1895274114569 309.7070475100338 832.5988242458445 308.93498365273217Q830.0081210802323 308.14576282082385 826.2679006159709 307.90556517632996L826.2679006159709 307.90556517632996L826.3879994382179 304.52564117880934Q835.0694285892099 305.8467282235255 843.0817357305405 306.1040828426261Q851.1111998464778 306.34428048711993 860.2730242864577 304.2854435343155L860.2730242864577 304.2854435343155L861.0107741945459 307.06487342060143Q857.2705537302845 308.86635575430535 856.0009376093884 312.9154017614875Q854.7313214884923 316.94729079406284 857.5107513747784 322.5061505666348L857.5107513747784 322.5061505666348Q858.4715419527538 324.18753407809174 860.1529254642107 327.2071616088716Q861.8514659502744 330.2267891396515 864.1333435729659 334.32730607065366L864.1333435729659 334.32730607065366Q868.7314127675626 327.2071616088716 872.471633231824 321.11643562349184Q876.1946967214787 315.025709638112 877.8932372075424 311.6457856405914L877.8932372075424 311.6457856405914Q878.9741266077647 309.34675104329307 879.3344230745055 307.1849722428484L879.3344230745055 307.1849722428484Q879.5746207189993 305.3663329345378 878.9741266077647 303.61632152465404Q878.37363249653 301.8663101147703 876.0745978992318 300.9055195367948L876.0745978992318 300.9055195367948L876.6922489850731 299.1040372030909Q879.8148183634931 299.3442348475848 883.6236667261815 299.6359034158987Q887.415358114263 299.94472895881944 891.2242064769512 300.06482778106636Q895.0158978650327 300.18492660331333 898.3958218625532 299.94472895881944Q901.7757458600739 299.70453131432555 904.1948792796192 298.8638395585971L904.1948792796192 298.8638395585971L903.9546816351253 301.7462112925233Q901.4154493933331 302.3638623783647 899.2365136182818 302.89572859117243Q897.0747348178371 303.44475177858703 894.6556013982919 305.07466436622383Q892.2536249533534 306.70457695386074 889.1138986003266 310.0845009513813Q885.9741722472997 313.44726797429524 881.5133588495569 319.6066218581019L881.5133588495569 319.6066218581019Q878.0133360297893 324.4277317225856 874.5133132100217 329.677765952237Q871.0132903902542 334.9278001818883 867.6333663927335 340.3494041576067L867.6333663927335 340.3494041576067Q870.1725986345257 344.7072757077094 872.9520285208116 349.3396588515194Q875.714301432491 353.98919896993607 878.613830141024 358.6902100121729Q881.5133588495569 363.3912210544097 884.4128875580898 367.86919142675936Q887.295259292016 372.33000482450234 889.9545903560551 376.1903241110107L889.9545903560551 376.1903241110107Q893.4546131758227 381.49182926448213 895.925217519188 384.2712591507682Q898.3958218625532 387.0506890370541 900.3345599931108 388.4918749040172Q902.2561411490617 389.9330607709803 903.9546816351253 390.4134560599681Q905.6360651465823 390.91100832356244 907.6949020993867 391.3914036125502L907.6949020993867 391.3914036125502L907.8150009216336 393.79338005748866Q904.1948792796192 393.312984768501 898.9963159737879 392.83258947951333Q893.8149096425634 392.35219419052555 888.4447765906651 392.2835662920987Q883.0746435387668 392.2320953682787 878.2535336742832 392.5923918350195Q873.4324238097994 392.9526883017602 870.4127962790196 394.15367652422947L870.4127962790196 394.15367652422947L869.9324009900319 391.27130479030325Q872.9520285208116 389.6928631264865 875.1824352196832 388.3031481833435Q877.4128419185546 386.93059021480724 878.32216157271 384.9918520842497Q879.2143242522586 383.0531139536922 878.7339289632708 380.1021143213392Q878.2535336742832 377.1511146889861 875.9544990769848 372.33000482450234L875.9544990769848 372.33000482450234Q873.9128190987872 367.98929024900633 870.4127962790196 361.5897387207059Q866.9127734592519 355.19018719240535 863.0524541727436 348.1901415528703L863.0524541727436 348.1901415528703Q859.1921348862353 354.82989072566454 856.2411352538822 360.44022142205665Q853.2901356215292 366.05055211844876 851.5915951354656 369.79077258271025L851.5915951354656 369.79077258271025Q849.4298163350209 374.49178362494706 850.2705080907494 376.3618938570777Q851.1111998464778 378.23200408920843 853.770530910517 379.0726958449369L853.770530910517 379.0726958449369L853.0327810024287 381.73202690897597Q849.1724617159203 381.01143397549447 844.900375038851 380.7026084325738Q840.6111313871752 380.41093986425983 836.5792423545998 380.41093986425983Q832.5301963474177 380.41093986425983 828.9100747054033 380.77123633100064Q825.2899530633888 381.13153279774133 822.6477789739564 381.73202690897597L822.6477789739564 381.73202690897597L822.2874825072156 379.57024810853136ZM929.6386726213607 381.01143397549447L929.6386726213607 381.01143397549447Q932.4181025076467 381.01143397549447 934.837235927192 379.0726958449369Q937.2392123721304 377.1511146889861 938.2171599247126 372.5702024689962L938.2171599247126 372.5702024689962L940.7392351918979 373.5309930469716Q940.3789387251572 376.4305217555045 938.4573575692065 379.38152138785756Q936.518619438649 382.3325210202106 933.4989919078691 384.39135797301503Q930.496521351696 386.4330379512128 926.6876729890078 387.0506890370541Q922.8959816009262 387.65118314828874 918.9155634921708 385.83254383997814L918.9155634921708 385.83254383997814Q914.5576919420682 383.7908638617804 912.6361107861173 380.5310386865067Q910.6973726555598 377.271213511233 910.2169773665721 372.9819698595571Q909.7365820775844 368.70988318248783 910.0968785443253 363.70004659733036Q910.457175011066 358.6902100121729 910.457175011066 353.26860603645457L910.457175011066 353.26860603645457Q910.457175011066 350.1288796834277 910.4057040872459 345.83963603175187Q910.3370761888191 341.56754935468257 910.1655064427521 336.7292825155922Q909.9767797220784 331.90817265110843 909.6164832553375 326.778237243704Q909.2561867885968 321.66545881090633 908.895890321856 316.707093149569L908.895890321856 316.707093149569Q904.7953733908537 317.18748843855667 901.1066238504125 317.85661044821813Q897.4350312845779 318.5257324578795 894.8957990427857 319.48652303585493L894.8957990427857 319.48652303585493Q894.7757002205387 318.4056336356326 894.8443281189657 317.805139524398Q894.8957990427857 317.18748843855667 894.9644269412127 316.65562222574886Q895.0158978650327 316.10659903833437 895.0158978650327 315.4374770286729Q895.0158978650327 314.7855119936181 894.7757002205387 313.56736679654216L894.7757002205387 313.56736679654216Q897.6752289290716 313.3271691520483 901.2267226726594 313.0869715075545Q904.7953733908537 312.84677386306066 908.5355938551152 312.6065762185668L908.5355938551152 312.6065762185668Q908.4154950328682 310.9251927071098 908.2953962106212 309.295280119473Q908.1752973883744 307.66536753183607 907.9350997438805 306.1040828426261L907.9350997438805 306.1040828426261Q907.3346056326459 300.42512424780716 905.7046930450091 297.0452002502865Q904.0747804573723 293.6652762527659 902.1360423268147 291.863793919062Q900.2144611708638 290.0451546107514 898.5159206848002 289.3931895756966Q896.8345371733433 288.7240675660352 895.9938454176147 288.4838699215413L895.9938454176147 288.4838699215413L896.3541418843556 286.18483532424307Q898.6360195070472 287.1627828768252 902.0159435045678 287.45445144513917Q905.3958675020883 287.76327698805983 909.067460067923 287.45445144513917Q912.7562096083643 287.1627828768252 916.307703351952 286.30493414649Q919.8763540701464 285.4642423907615 922.5185281595786 284.1431553460453L922.5185281595786 284.1431553460453Q921.3175399371094 287.52307934356594 920.4082202829541 294.8834214498419Q919.5160576034056 302.24376355611776 918.9155634921708 312.00608210733213L918.9155634921708 312.00608210733213Q925.1778592236178 311.6457856405914 927.9572891099037 311.04529152935675L927.9572891099037 311.04529152935675Q927.3567949986691 311.7658844628383 927.3567949986691 313.39579705047515Q927.3567949986691 315.025709638112 927.7170914654099 316.3467966828282L927.7170914654099 316.3467966828282Q925.6582545126055 316.10659903833437 923.3763768899139 316.0551281145142Q921.0773422926156 315.9865002160874 918.6582088730704 315.9865002160874L918.6582088730704 315.9865002160874Q918.2979124063295 322.98654585562247 918.1778135840827 330.5870856063923Q918.0577147618358 338.187625357162 918.3665403047564 345.59943838725803Q918.6582088730704 353.02840839196074 919.3273308827318 360.07992495531596Q919.9964528923933 367.1314415186712 921.0773422926156 373.05059775798395L921.0773422926156 373.05059775798395Q922.038132870591 377.271213511233 924.4572662901362 379.0726958449369Q926.8763997096814 380.8913351532475 929.6386726213607 381.01143397549447ZM989.722397694037 333.0062190259375L989.722397694037 333.0062190259375Q989.6022988717903 335.04789900413516 989.2934733288695 336.48908487109827Q989.0018047605556 337.9474277126682 988.8817059383086 339.0969450113173Q988.7616071160617 340.22930533535975 989.0018047605556 341.2072528879419Q989.2420024050493 342.1680434659172 990.3228918052718 343.3690316883865L990.3228918052718 343.3690316883865Q987.063066629998 342.40824111041115 984.4208925405657 341.9793167452435Q981.7615614765266 341.56754935468257 979.702724523722 341.32735171018874L979.702724523722 341.32735171018874Q977.4208469010305 341.2072528879419 975.60220759272 341.32735171018874L975.60220759272 341.32735171018874Q976.820352789796 339.6288112241251 977.2321201803568 337.58713124592737Q977.6610445455244 335.52829429312294 977.9012421900184 332.50866676234307L977.9012421900184 332.50866676234307Q978.0213410122651 330.34688796189835 977.6610445455244 328.0478533646001Q977.3007480787835 325.7659757419085 975.2419111259792 325.1483246560672L975.2419111259792 325.1483246560672Q974.4012193702506 325.0282258338202 973.4404287922753 325.0282258338202Q972.4624812396931 325.0282258338202 971.261493017224 325.5772490212348Q970.0605047947547 326.1262722086493 968.482063130938 327.3272604311186Q966.9207784417279 328.52824865358787 964.9820403111703 330.8272832508861L964.9820403111703 330.8272832508861Q962.219767399491 334.08710842615983 960.0408316244396 337.7587009919944Q957.879052823995 341.4474505324357 956.3006111601783 345.0675721744502Q954.7393264709683 348.6876938164646 953.830006816813 351.8788910933115Q952.9206871626577 355.0700883701585 952.8005883404107 357.36912296745675L952.8005883404107 357.36912296745675Q952.8005883404107 357.72941943419755 952.6804895181638 357.8495182564444L952.6804895181638 357.8495182564444Q952.9206871626577 362.5505292986812 953.2809836293984 366.6510462296834Q953.6584370707459 370.7515631606856 954.0187335374867 373.6510918692186L954.0187335374867 373.6510918692186Q954.3790300042275 376.4305217555045 955.0309950392823 378.23200408920843Q955.7001170489436 380.050643397519 956.5408088046722 381.20016069616815Q957.3986575350073 382.3325210202106 958.3594481129828 383.0531139536922Q959.3202386909581 383.7908638617804 960.1609304466866 384.39135797301503L960.1609304466866 384.39135797301503L960.4011280911805 386.93059021480724Q958.7197445797235 386.19284030671895 955.5800182266967 385.90117173840497Q952.44029187367 385.5923461954843 948.8887981300823 385.83254383997814Q945.320147411888 386.0727414844721 941.7000257698735 386.93059021480724Q938.0970611024657 387.7712819705357 935.5578288606735 389.2124678374988L935.5578288606735 389.2124678374988L935.1975323939328 386.4330379512128Q938.5774563914533 385.11195090649665 941.4083572015595 381.440358340662Q944.2392580116656 377.75160880022077 944.9598509451471 369.9108714049571L944.9598509451471 369.9108714049571Q945.320147411888 366.05055211844876 945.7490717770555 361.9500351874466Q946.177996142223 357.8495182564444 946.29809496447 353.6289025031954Q946.418193786717 349.4082867499462 946.177996142223 344.94747335220325Q945.9377984977293 340.4695029798536 944.8397521229002 335.7684919376168L944.8397521229002 335.7684919376168Q943.8789615449248 332.3885679400961 942.6779733224555 329.5061962061699L942.6779733224555 329.5061962061699Q941.7000257698735 327.08706278662464 940.2073689790902 324.9767549100002Q938.6975552137003 322.8664470333756 936.8789159053897 322.3860517443878L936.8789159053897 322.3860517443878L936.6387182608959 319.6066218581019Q938.0970611024657 319.84681950259574 940.3274678013372 320.08701714708957Q942.5578745002085 320.3272147915834 945.079949767394 320.5159415122572Q947.6191820091863 320.6875112583242 950.2785130732252 320.6875112583242Q952.9206871626577 320.6875112583242 955.339820582203 320.4473136138304L955.339820582203 320.4473136138304Q954.8594252932153 322.6262493888818 954.0702044613067 328.52824865358787Q953.2809836293984 334.44740489290064 952.8005883404107 341.8077469991765L952.8005883404107 341.8077469991765Q954.3790300042275 338.187625357162 956.9011052714129 333.726811959419Q959.4403375132051 329.26599856167604 962.8202615107257 325.5257780974147Q966.2001855082462 321.7855576331532 970.4208012614954 319.4350521120349Q974.6414170147445 317.0673896163097 979.702724523722 317.56494187990415L979.702724523722 317.56494187990415Q982.7223520545019 317.92523834664496 984.7125611088798 319.6066218581019Q986.7027701632574 321.28800536955885 987.8522874619064 323.5870399668571Q989.0018047605556 325.8860745641555 989.4135721511165 328.4081498313409Q989.842496516284 330.947382073133 989.722397694037 333.0062190259375ZM994.7837052030147 352.3078154584791L994.7837052030147 352.3078154584791Q995.1440016697554 345.1876709966971 997.8548036576146 339.0283171128905Q1000.5827626200806 332.8689632290839 1004.9234771955767 328.4767777297677Q1009.2641917710727 324.0674352558449 1014.7544236452178 321.7855576331532Q1020.244655519363 319.48652303585493 1026.1466547840691 320.20711596933654L1026.1466547840691 320.20711596933654Q1032.0658110233817 320.92770890281804 1035.2570083002288 323.82723761135094Q1038.4653625516823 326.72676631988395 1039.7864495963986 330.27826006347163Q1041.1075366411146 333.846910781666 1041.2276354633616 337.34693360143353Q1041.3477342856086 340.84695642120107 1041.2276354633616 342.76853757715185L1041.2276354633616 342.76853757715185Q1041.1075366411146 344.58717688546244 1040.8158680728009 346.74895568590716Q1040.50704252988 348.92789146095856 1040.1982169869593 351.038199337583Q1039.9065484186453 353.1485072142076 1039.9065484186453 355.01861744633834Q1039.9065484186453 356.8887276784691 1040.2668448853863 358.08971590093824L1040.2668448853863 358.08971590093824Q1037.2472173546062 357.1289253229629 1033.2667992458512 355.9794080243138Q1029.2863811370958 354.82989072566454 1024.6368410186792 354.2293966144299Q1020.0044578748691 353.6289025031954 1014.9946212897116 353.8004722492624Q1009.9847847045542 353.98919896993607 1005.0435760178236 355.55048365914615L1005.0435760178236 355.55048365914615Q1004.9234771955767 360.1485528537427 1005.712698027485 364.6608371753058Q1006.4847618847866 369.1902784714756 1008.3034011930972 373.2907954024778L1008.3034011930972 373.2907954024778Q1009.8646858823073 376.7908182222453 1011.9235228351117 379.4501492862844Q1013.9652028133094 382.0923233757168 1016.3157083344279 383.48203831885974Q1018.6662138555463 384.8717532620028 1021.1539751735183 384.9918520842497Q1023.6245795168836 385.11195090649665 1026.1466547840691 383.55066621728656L1026.1466547840691 383.55066621728656Q1028.2054917368735 382.0923233757168 1029.2863811370958 380.050643397519L1029.2863811370958 380.050643397519Q1030.2471717150713 378.3521029114554 1030.0756019690043 375.95012646651685Q1029.8868752483304 373.5309930469716 1027.4848988033918 370.3912666939449L1027.4848988033918 370.3912666939449L1042.5658794826845 369.6706737604633Q1041.7080307523493 372.0898071800085 1040.0781181647126 375.709928822023Q1038.4653625516823 379.3300504640375 1035.6859326653964 382.6928174869514Q1032.9065027791103 386.0727414844721 1028.805985848108 388.37177608177035Q1024.705468917106 390.65365370446193 1018.9064115000401 390.4134560599681L1018.9064115000401 390.4134560599681Q1013.124511057581 390.0531595932273 1008.4749709391642 386.74186349413344Q1003.8425877953542 383.4305673950397 1000.7028614423275 378.11190526696146Q997.5631350893007 372.8104001134901 996.0018504000907 366.1191800168756Q994.4234087362739 359.4108029456545 994.7837052030147 352.3078154584791ZM1024.705468917106 323.3468423223633L1024.705468917106 323.3468423223633Q1021.3255449195854 322.98654585562247 1018.1343476427385 325.0282258338202Q1014.9259933912849 327.08706278662464 1012.3352902256727 330.87875417470616Q1009.7445870600603 334.68760253739447 1007.9431047263565 339.86900886861895Q1006.1244654180458 345.0675721744502 1005.4038724845643 350.72937379466237L1005.4038724845643 350.72937379466237Q1012.2838193018525 349.8886820389339 1018.1858185665585 349.82005414050707Q1024.1049748058713 349.76858321668703 1029.166282314849 350.6092749724155L1029.166282314849 350.6092749724155Q1030.487369359565 347.82984508612947 1031.5854157343942 343.4376595868133Q1032.6663051346166 339.0283171128905 1032.5462063123696 334.7390734612145Q1032.4261074901226 330.4669867841453 1030.676096080239 327.2071616088716Q1028.926084670355 323.9473364335979 1024.705468917106 323.3468423223633ZM1076.6911019754184 385.47224737323745L1076.6911019754184 385.47224737323745Q1074.048927885986 385.11195090649665 1070.789102710712 384.75165443975584Q1067.5292775354383 384.39135797301503 1064.2179814363446 384.20263125234135Q1060.8895283626441 384.03106150627434 1057.9385287302912 384.20263125234135Q1054.987529097938 384.39135797301503 1053.0487909673805 385.11195090649665L1053.0487909673805 385.11195090649665L1052.0880003894051 383.0531139536922Q1053.769383900862 382.3325210202106 1054.9189011995113 381.73202690897597Q1056.0684184981603 381.13153279774133 1056.7375405078217 380.22221314358603Q1057.3895055428766 379.3300504640375 1057.766958984224 377.7001378764006Q1058.1272554509649 376.0702252887638 1058.3674530954586 373.1706965802308L1058.3674530954586 373.1706965802308Q1058.4875519177056 371.23195844967336 1058.6076507399525 367.6804647060857Q1058.7277495621993 364.128970962498 1058.8478483844465 359.8397273108221Q1058.9679472066932 355.55048365914615 1058.9679472066932 350.84947261690934Q1058.9679472066932 346.1484615746725 1058.8478483844465 341.7391191007497Q1058.7277495621993 337.34693360143353 1058.4875519177056 333.60671313717205Q1058.2473542732118 329.8664926729107 1057.887057806471 327.5674580756124L1057.887057806471 327.5674580756124Q1057.5096043651236 325.1483246560672 1056.668912609395 323.89586550977776Q1055.8282208536666 322.6262493888818 1054.5586047327704 322.02575527764714Q1053.2889886118742 321.4252611664125 1051.6590760242375 321.28800536955885Q1050.0463204112075 321.1679065473119 1048.10758228065 321.1679065473119L1048.10758228065 321.1679065473119L1048.10758228065 319.00612774686726Q1055.7081220314196 319.6066218581019 1061.8674759152261 319.6066218581019Q1068.0096728244262 319.6066218581019 1071.8699921109344 318.5257324578795L1071.8699921109344 318.5257324578795L1071.9900909331814 320.08701714708957Q1071.2694979997 320.3272147915834 1070.669003888465 321.2365344457387Q1070.0685097772307 322.145854099894 1069.519486589816 324.0674352558449Q1068.9704634024015 326.00617338640234 1068.5586960118408 329.1458997394292Q1068.1297716466731 332.26846911784924 1068.0096728244262 337.1067359569397L1068.0096728244262 337.1067359569397Q1069.4680156659958 334.2072072484067 1071.3895968219467 331.3076785398738Q1073.3283349525043 328.4081498313409 1075.6788404736226 326.24637103089617Q1078.029345994741 324.0674352558449 1080.860246804847 322.7978191349488Q1083.6911476149533 321.54535998865936 1086.9509727902268 321.7855576331532L1086.9509727902268 321.7855576331532Q1092.1323791214515 322.26595292214097 1094.7402392616705 325.64587691966153Q1097.3309424272827 329.00864394257553 1098.2917330052583 333.60671313717205L1098.2917330052583 333.60671313717205Q1101.9118546472728 326.606667497637 1107.5221853436647 322.6262493888818Q1113.1325160400568 318.64583128012646 1120.2526605018388 319.48652303585493L1120.2526605018388 319.48652303585493Q1124.473276255088 320.08701714708957 1127.7331014303618 323.2953713985431Q1130.9757696310287 326.4865686753901 1133.10323448226 331.18757971762693Q1135.2135423588845 335.88859075986375 1135.8655073939392 341.56754935468257Q1136.5346294036008 347.2293509748948 1135.6939376478722 352.54801310297296L1135.6939376478722 352.54801310297296Q1134.7159900952902 357.8495182564444 1132.1252869296777 364.24906978474496Q1129.5345837640657 370.6314643384387 1126.7036829539595 377.03101586673915Q1123.8727821438533 383.4305673950397 1121.693846368802 389.09236901525185Q1119.5320675683574 394.7713276100708 1119.5320675683574 398.3742922774786L1119.5320675683574 398.3742922774786Q1119.5320675683574 403.9331520500506 1122.2428695562166 406.5238552156628Q1124.9536715440759 409.11455838127506 1128.813990830584 409.11455838127506L1128.813990830584 409.11455838127506Q1130.735571986535 409.11455838127506 1132.7257810409124 408.51406427004054Q1134.7159900952902 407.9135701588059 1136.3459026829269 406.6439540379098Q1137.9758152705638 405.3743379170137 1139.005233746966 403.50422768488295Q1140.0346522233683 401.6341174527523 1140.0346522233683 399.1120421855669L1140.0346522233683 399.1120421855669Q1140.0346522233683 395.61201936579926 1137.495419981576 394.0335777019826Q1134.9733447143908 392.4722930127725 1132.4341124725984 392.4722930127725L1132.4341124725984 392.4722930127725Q1129.8948802308064 392.4722930127725 1128.0933978971025 393.98210677816246Q1126.2747585887919 395.4919205435524 1126.2747585887919 397.773798166244L1126.2747585887919 397.773798166244Q1126.2747585887919 398.3742922774786 1126.4634853094658 399.16351310938694Q1126.6350550555326 399.9527339412954 1127.0639794207002 400.6733268747769Q1127.4929037858678 401.3939198082585 1128.3335955415964 401.942942995673Q1129.1742872973248 402.49196618308747 1130.495374342041 402.49196618308747L1130.495374342041 402.49196618308747Q1131.5934207168702 402.49196618308747 1132.3140136503516 402.11451274174Q1133.0346065838332 401.7542162749992 1133.6351006950676 401.15372216376454L1133.6351006950676 401.15372216376454Q1131.953717183611 400.5532280525299 1131.0443975294556 399.35223983006074Q1130.1350778753003 398.1340946329848 1131.1130254278823 396.5728099437747L1131.1130254278823 396.5728099437747Q1131.5934207168702 395.8522170102932 1132.5542112948456 395.6634902896194Q1133.515001872821 395.4919205435524 1134.544420349223 395.90368793411324Q1135.5738388256254 396.33261229928087 1136.2258038606801 397.2934028772563Q1136.8949258703415 398.25419345523164 1136.8949258703415 399.71253629680143L1136.8949258703415 399.71253629680143Q1136.8949258703415 402.11451274174 1134.9733447143908 403.6243265071299Q1133.0346065838332 405.13414027251986 1130.6154731642878 405.25423909476683L1130.6154731642878 405.25423909476683Q1128.0933978971025 405.3743379170137 1126.034560944298 403.7444253293769Q1123.9928809661005 402.11451274174 1123.9928809661005 398.6316468965791L1123.9928809661005 398.6316468965791Q1123.9928809661005 395.0115252545646 1126.3433864872186 392.5923918350195Q1128.6938920083371 390.17325841547427 1132.5542112948456 390.17325841547427L1132.5542112948456 390.17325841547427Q1137.1351235148354 390.17325841547427 1139.8459255026946 392.90121737794016Q1142.5567274905538 395.61201936579926 1142.5567274905538 399.5924374745546L1142.5567274905538 399.5924374745546Q1142.5567274905538 401.6341174527523 1141.8361345570722 404.1047217961176Q1141.1155416235906 406.59248311408965 1139.3655302137067 408.75426191453437Q1137.615518803823 410.93319768958565 1134.6645191714701 412.4430114549756Q1131.713519539117 413.9528252203655 1127.1154503445205 413.9528252203655L1127.1154503445205 413.9528252203655Q1124.2330786105942 413.9528252203655 1121.642375444982 412.85477884553654Q1119.0345153047629 411.77388944531424 1117.0443062503853 409.59495367026284Q1115.0540971960077 407.4331748698181 1113.921736871965 404.3620764152182Q1112.772219573316 401.2738209860115 1112.652120751069 397.2934028772563L1112.652120751069 397.2934028772563Q1112.652120751069 392.9526883017602 1114.402132160953 387.5825552498619Q1116.1521435708369 382.21242219796375 1118.5541200157752 375.95012646651685L1118.5541200157752 375.95012646651685Q1122.2943404800367 365.81035447395493 1123.7526833216066 356.8887276784691Q1125.1938691885696 347.94994390837644 1124.473276255088 341.32735171018874Q1123.7526833216066 334.68760253739447 1121.0247243591407 330.8272832508861Q1118.3139223712815 326.9669639643778 1113.7330101512916 326.9669639643778L1113.7330101512916 326.9669639643778Q1110.7133826205118 326.9669639643778 1108.48297592164 329.5061962061699Q1106.2525692227687 332.0282714733554 1104.8113833558054 336.0086895821106Q1103.3530405142358 339.9891076908659 1102.5123487585074 344.94747335220325Q1101.6716570027788 349.8886820389339 1101.191261713791 354.7784198018445Q1100.7108664248035 359.6510005901483 1100.5907676025563 363.82014541957733Q1100.4706687803096 367.98929024900633 1100.4706687803096 370.51136551619174L1100.4706687803096 370.51136551619174Q1100.4706687803096 373.5309930469716 1101.2427326376112 375.2810044568554Q1102.0319534695195 377.03101586673915 1103.1814707681688 377.9918064447146Q1104.3309880668178 378.95259702269004 1105.5834472131073 379.38152138785756Q1106.8530633340033 379.8104457530252 1107.9511097088323 380.170742219766L1107.9511097088323 380.170742219766L1107.213359800744 382.0923233757168Q1105.892272756028 381.85212573122294 1102.7525464030011 381.56045716290896Q1099.6128200499743 381.2516316199883 1096.1127972302068 381.20016069616815Q1092.629931385046 381.13153279774133 1089.4215771335923 381.49182926448213Q1086.2303798567455 381.85212573122294 1084.6519381929288 382.93301513144525L1084.6519381929288 382.93301513144525L1084.171542903941 380.41093986425983Q1085.2695892787701 380.050643397519 1086.3504786789924 379.74181785459837Q1087.4313680792147 379.4501492862844 1088.34068773337 378.47220173370226Q1089.2500073875253 377.51141115572693 1089.7818736003333 375.40110327910236Q1090.3308967877476 373.2907954024778 1090.5710944322416 369.31037729372247L1090.5710944322416 369.31037729372247Q1090.9313908989823 361.2294422539651 1091.7206117308906 353.98919896993607Q1092.5098325627991 346.74895568590716 1092.8701290295398 341.32735171018874L1092.8701290295398 341.32735171018874Q1092.9902278517868 338.5479218239028 1092.7500302072929 336.07731748053743Q1092.5098325627991 333.60671313717205 1091.6519838324639 331.7366029050414Q1090.8112920767353 329.8664926729107 1089.2500073875253 328.8370741965085Q1087.6715657237087 327.80765572010625 1085.2695892787701 327.80765572010625L1085.2695892787701 327.80765572010625Q1082.730357036978 327.9277545423532 1079.710729506198 329.98659149515765Q1076.6911019754184 332.0282714733554 1074.1690267082326 335.7684919376168Q1071.6297944664407 339.50871240187814 1069.8797830565568 344.75874663152956Q1068.1297716466731 350.00878086118087 1068.1297716466731 356.28823356723444L1068.1297716466731 356.28823356723444L1068.0096728244262 356.16813474498747Q1068.24987046892 360.3887504982366 1068.3699692911669 364.42063953081197Q1068.4900681134138 368.469685537994 1068.7302657579075 371.3520572719202L1068.7302657579075 371.3520572719202Q1068.9704634024015 374.3716848027001 1069.2106610468954 376.3618938570777Q1069.4680156659958 378.3521029114554 1070.2400795232975 379.6903469307782Q1071.029300355206 381.01143397549447 1072.590585044416 381.8006548074028Q1074.1690267082326 382.57271866470444 1076.9312996199121 383.0531139536922L1076.9312996199121 383.0531139536922L1076.6911019754184 385.47224737323745ZM1144.0150703321235 352.3078154584791L1144.0150703321235 352.3078154584791Q1144.3753667988644 345.1876709966971 1147.0861687867236 339.0283171128905Q1149.7969707745826 332.8689632290839 1154.1376853500788 328.4767777297677Q1158.4955569001813 324.0674352558449 1163.9857887743267 321.7855576331532Q1169.4588636738652 319.48652303585493 1175.378019913178 320.20711596933654L1175.378019913178 320.20711596933654Q1181.2971761524907 320.92770890281804 1184.4883734293376 323.82723761135094Q1187.6795707061847 326.72676631988395 1189.0178147255074 330.27826006347163Q1190.3389017702234 333.846910781666 1190.4590005924706 337.34693360143353Q1190.5790994147173 340.84695642120107 1190.4590005924706 342.76853757715185L1190.4590005924706 342.76853757715185Q1190.3389017702234 344.58717688546244 1190.030076227303 346.74895568590716Q1189.7384076589888 348.92789146095856 1189.4295821160683 351.038199337583Q1189.1379135477544 353.1485072142076 1189.1379135477544 355.01861744633834Q1189.1379135477544 356.8887276784691 1189.498210014495 358.08971590093824L1189.498210014495 358.08971590093824Q1186.4785824837152 357.1289253229629 1182.49816437496 355.9794080243138Q1178.5177462662045 354.82989072566454 1173.868206147788 354.2293966144299Q1169.2186660293712 353.6289025031954 1164.2259864188204 353.8004722492624Q1159.216149833663 353.98919896993607 1154.2749411469324 355.55048365914615L1154.2749411469324 355.55048365914615Q1154.1376853500788 360.1485528537427 1154.926906181987 364.6608371753058Q1155.7161270138954 369.1902784714756 1157.5176093475993 373.2907954024778L1157.5176093475993 373.2907954024778Q1159.096051011416 376.7908182222453 1161.1377309896138 379.4501492862844Q1163.1965679424184 382.0923233757168 1165.5470734635367 383.48203831885974Q1167.897578984655 384.8717532620028 1170.3681833280205 384.9918520842497Q1172.838787671386 385.11195090649665 1175.378019913178 383.55066621728656L1175.378019913178 383.55066621728656Q1177.4368568659825 382.0923233757168 1178.5177462662045 380.050643397519L1178.5177462662045 380.050643397519Q1179.47853684418 378.3521029114554 1179.2898101235064 375.95012646651685Q1179.1182403774394 373.5309930469716 1176.699106957894 370.3912666939449L1176.699106957894 370.3912666939449L1191.7800876371866 369.6706737604633Q1190.939395881458 372.0898071800085 1189.3094832938214 375.709928822023Q1187.6795707061847 379.3300504640375 1184.9001408198985 382.6928174869514Q1182.137867908219 386.0727414844721 1178.037350977217 388.37177608177035Q1173.9368340462147 390.65365370446193 1168.137776629149 390.4134560599681L1168.137776629149 390.4134560599681Q1162.3558761866898 390.0531595932273 1157.7063360682732 386.74186349413344Q1153.0567959498565 383.4305673950397 1149.9170695968296 378.11190526696146Q1146.7945002184094 372.8104001134901 1145.216058554593 366.1191800168756Q1143.6547738653826 359.4108029456545 1144.0150703321235 352.3078154584791ZM1173.9368340462147 323.3468423223633L1173.9368340462147 323.3468423223633Q1170.5569100486941 322.98654585562247 1167.3485557972406 325.0282258338202Q1164.1573585203937 327.08706278662464 1161.5666553547815 330.87875417470616Q1158.9759521891692 334.68760253739447 1157.1573128808586 339.86900886861895Q1155.3558305471547 345.0675721744502 1154.635237613673 350.72937379466237L1154.635237613673 350.72937379466237Q1161.4980274563545 349.8886820389339 1167.4171836956675 349.82005414050707Q1173.3191829603734 349.76858321668703 1178.3976474439578 350.6092749724155L1178.3976474439578 350.6092749724155Q1179.7187344886738 347.82984508612947 1180.7996238888963 343.4376595868133Q1181.8976702637253 339.0283171128905 1181.7775714414784 334.7390734612145Q1181.6574726192314 330.4669867841453 1179.9074612093477 327.2071616088716Q1178.1574497994638 323.9473364335979 1173.9368340462147 323.3468423223633Z " fill="#ffffff" transform="matrix(0.7341958341914785,0,0,0.7341958341914786,0,36.318567700026136)"/></g></svg>